<svg width="28" height="28" viewBox="0 0 28 28" fill="none" xmlns="http://www.w3.org/2000/svg">
<path d="M5.60006 1H22.4C23.889 1 24.6335 1 25.2361 1.19577C26.4538 1.59145 27.4086 2.54618 27.8042 3.76393C28 4.36646 28 5.11097 28 6.6C28 6.97226 28 7.15838 27.9511 7.30902C27.8521 7.61346 27.6135 7.85214 27.309 7.95106C27.1584 8 26.9723 8 26.6 8H1.40014C1.02791 8 0.841801 8 0.691179 7.95106C0.386731 7.85215 0.148038 7.61347 0.049117 7.30902C0.000176809 7.1584 0.000171466 6.97229 0.000160779 6.60006C0.000118031 5.11109 9.66561e-05 4.3666 0.195837 3.76409C0.591481 2.54625 1.54627 1.59144 2.7641 1.19576C3.3666 1 4.11109 1 5.60006 1Z" fill="#111111"/>
<path d="M5.60006 10H22.4C23.889 10 24.6335 10 25.2361 10.1958C26.4538 10.5914 27.4086 11.5462 27.8042 12.7639C28 13.3665 28 14.111 28 15.6C28 15.9723 28 16.1584 27.9511 16.309C27.8521 16.6135 27.6135 16.8521 27.309 16.9511C27.1584 17 26.9723 17 26.6 17H1.40014C1.02791 17 0.841801 17 0.691179 16.9511C0.386731 16.8522 0.148038 16.6135 0.049117 16.309C0.000176809 16.1584 0.000171466 15.9723 0.000160779 15.6001C0.000118031 14.1111 9.66561e-05 13.3666 0.195837 12.7641C0.591481 11.5462 1.54627 10.5914 2.7641 10.1958C3.3666 10 4.11109 10 5.60006 10Z" fill="#111111"/>
<path d="M5.60006 19H22.4C23.889 19 24.6335 19 25.2361 19.1958C26.4538 19.5914 27.4086 20.5462 27.8042 21.7639C28 22.3665 28 23.111 28 24.6C28 24.9723 28 25.1584 27.9511 25.309C27.8521 25.6135 27.6135 25.8521 27.309 25.9511C27.1584 26 26.9723 26 26.6 26H1.40014C1.02791 26 0.841801 26 0.691179 25.9511C0.386731 25.8522 0.148038 25.6135 0.049117 25.309C0.000176809 25.1584 0.000171466 24.9723 0.000160779 24.6001C0.000118031 23.1111 9.66561e-05 22.3666 0.195837 21.7641C0.591481 20.5462 1.54627 19.5914 2.7641 19.1958C3.3666 19 4.11109 19 5.60006 19Z" fill="#111111"/>
</svg>
