<svg width="24" height="24" viewBox="0 0 24 24" fill="none" xmlns="http://www.w3.org/2000/svg">
<path d="M18.7499 8.24999V18C18.7499 18.1989 18.6709 18.3897 18.5303 18.5303C18.3896 18.671 18.1988 18.75 17.9999 18.75H8.24993C8.05102 18.75 7.86025 18.671 7.7196 18.5303C7.57895 18.3897 7.49993 18.1989 7.49993 18C7.49993 17.8011 7.57895 17.6103 7.7196 17.4697C7.86025 17.329 8.05102 17.25 8.24993 17.25H16.1896L5.4693 6.53062C5.32857 6.38988 5.24951 6.19901 5.24951 5.99999C5.24951 5.80097 5.32857 5.6101 5.4693 5.46936C5.61003 5.32863 5.80091 5.24957 5.99993 5.24957C6.19895 5.24957 6.38982 5.32863 6.53055 5.46936L17.2499 16.1897V8.24999C17.2499 8.05108 17.3289 7.86031 17.4696 7.71966C17.6103 7.57901 17.801 7.49999 17.9999 7.49999C18.1988 7.49999 18.3896 7.57901 18.5303 7.71966C18.6709 7.86031 18.7499 8.05108 18.7499 8.24999Z" fill="#111111"/>
</svg>
