<svg width="24" height="24" viewBox="0 0 24 24" fill="none" xmlns="http://www.w3.org/2000/svg">
<path d="M12.75 11.25V16.5C12.75 16.6989 12.671 16.8897 12.5304 17.0303C12.3897 17.171 12.199 17.25 12 17.25C11.8011 17.25 11.6104 17.171 11.4697 17.0303C11.3291 16.8897 11.25 16.6989 11.25 16.5V11.25C11.25 11.0511 11.3291 10.8603 11.4697 10.7197C11.6104 10.579 11.8011 10.5 12 10.5C12.199 10.5 12.3897 10.579 12.5304 10.7197C12.671 10.8603 12.75 11.0511 12.75 11.25ZM16.2038 11.175L15.6788 16.425C15.6684 16.5233 15.6776 16.6227 15.7057 16.7174C15.7339 16.8122 15.7805 16.9004 15.8429 16.9771C15.9053 17.0537 15.9822 17.1173 16.0692 17.1642C16.1563 17.211 16.2517 17.2402 16.35 17.25C16.3753 17.2514 16.4007 17.2514 16.426 17.25C16.6118 17.2498 16.7908 17.1806 16.9285 17.0559C17.0662 16.9312 17.1527 16.7598 17.1713 16.575L17.6963 11.325C17.7162 11.1271 17.6566 10.9294 17.5308 10.7754C17.4049 10.6213 17.223 10.5236 17.025 10.5037C16.8271 10.4839 16.6294 10.5434 16.4754 10.6693C16.3214 10.7952 16.2237 10.9771 16.2038 11.175ZM7.7963 11.175C7.77641 10.9771 7.67871 10.7952 7.52469 10.6693C7.37068 10.5434 7.17297 10.4839 6.97505 10.5037C6.77713 10.5236 6.59522 10.6213 6.46934 10.7754C6.34345 10.9294 6.28391 11.1271 6.3038 11.325L6.8288 16.575C6.84746 16.7606 6.93464 16.9327 7.07332 17.0575C7.212 17.1823 7.39222 17.2509 7.5788 17.25C7.60409 17.2514 7.62944 17.2514 7.65474 17.25C7.75274 17.2402 7.84784 17.2111 7.93461 17.1645C8.02138 17.1179 8.09812 17.0547 8.16045 16.9784C8.22278 16.9021 8.26948 16.8143 8.29789 16.72C8.32629 16.6257 8.33584 16.5267 8.32599 16.4287L7.7963 11.175ZM22.4935 8.34937L21.0807 18.9487C21.0314 19.3085 20.8538 19.6383 20.5805 19.8774C20.3073 20.1165 19.9569 20.2488 19.5938 20.25H4.4063C4.04322 20.2488 3.69278 20.1165 3.41955 19.8774C3.14632 19.6383 2.96871 19.3085 2.91943 18.9487L1.50661 8.34937C1.49245 8.24343 1.5011 8.13568 1.53197 8.03334C1.56285 7.93101 1.61525 7.83646 1.68564 7.75603C1.75604 7.6756 1.84282 7.61115 1.94016 7.56699C2.03751 7.52283 2.14316 7.49999 2.25005 7.5H6.40974L11.4375 1.75594C11.5079 1.67613 11.5945 1.61222 11.6915 1.56844C11.7885 1.52466 11.8936 1.50201 12 1.50201C12.1065 1.50201 12.2116 1.52466 12.3086 1.56844C12.4056 1.61222 12.4922 1.67613 12.5625 1.75594L17.5904 7.5H21.75C21.8569 7.49999 21.9626 7.52283 22.0599 7.56699C22.1573 7.61115 22.2441 7.6756 22.3145 7.75603C22.3849 7.83646 22.4372 7.93101 22.4681 8.03334C22.499 8.13568 22.5076 8.24343 22.4935 8.34937ZM8.40286 7.5H15.5972L12 3.38906L8.40286 7.5ZM20.8932 9H3.10693L4.4063 18.75H19.5938L20.8932 9Z" fill="#111111"/>
</svg>
