<svg width="24" height="24" viewBox="0 0 24 24" fill="none" xmlns="http://www.w3.org/2000/svg">
<path d="M17.0306 15.9694C17.1003 16.039 17.1556 16.1217 17.1933 16.2128C17.2311 16.3038 17.2505 16.4014 17.2505 16.5C17.2505 16.5985 17.2311 16.6961 17.1933 16.7872C17.1556 16.8782 17.1003 16.9609 17.0306 17.0306L12.5306 21.5306C12.4609 21.6003 12.3782 21.6557 12.2871 21.6934C12.1961 21.7311 12.0985 21.7506 11.9999 21.7506C11.9014 21.7506 11.8038 21.7311 11.7127 21.6934C11.6217 21.6557 11.539 21.6003 11.4693 21.5306L6.9693 17.0306C6.82857 16.8899 6.74951 16.699 6.74951 16.5C6.74951 16.301 6.82857 16.1101 6.9693 15.9694C7.11003 15.8286 7.30091 15.7496 7.49993 15.7496C7.69895 15.7496 7.88982 15.8286 8.03055 15.9694L11.9999 19.9397L15.9693 15.9694C16.039 15.8996 16.1217 15.8443 16.2127 15.8066C16.3038 15.7688 16.4014 15.7494 16.4999 15.7494C16.5985 15.7494 16.6961 15.7688 16.7871 15.8066C16.8782 15.8443 16.9609 15.8996 17.0306 15.9694ZM8.03055 8.03061L11.9999 4.06029L15.9693 8.03061C16.11 8.17134 16.3009 8.2504 16.4999 8.2504C16.699 8.2504 16.8898 8.17134 17.0306 8.03061C17.1713 7.88987 17.2503 7.699 17.2503 7.49998C17.2503 7.30096 17.1713 7.11009 17.0306 6.96935L12.5306 2.46935C12.4609 2.39962 12.3782 2.3443 12.2871 2.30656C12.1961 2.26882 12.0985 2.24939 11.9999 2.24939C11.9014 2.24939 11.8038 2.26882 11.7127 2.30656C11.6217 2.3443 11.539 2.39962 11.4693 2.46935L6.9693 6.96935C6.82857 7.11009 6.74951 7.30096 6.74951 7.49998C6.74951 7.699 6.82857 7.88987 6.9693 8.0306C7.11003 8.17133 7.30091 8.2504 7.49993 8.2504C7.69895 8.2504 7.88982 8.17134 8.03055 8.03061Z" fill="#111111"/>
</svg>
