<svg width="24" height="24" viewBox="0 0 24 24" fill="none" xmlns="http://www.w3.org/2000/svg">
<path d="M20.0306 9.53062L12.5306 17.0306C12.4609 17.1003 12.3782 17.1557 12.2871 17.1934C12.1961 17.2312 12.0985 17.2506 11.9999 17.2506C11.9014 17.2506 11.8038 17.2312 11.7127 17.1934C11.6217 17.1557 11.539 17.1003 11.4693 17.0306L3.9693 9.53062C3.82857 9.38988 3.74951 9.19901 3.74951 8.99999C3.74951 8.80097 3.82857 8.61009 3.9693 8.46936C4.11003 8.32863 4.30091 8.24957 4.49993 8.24957C4.69895 8.24957 4.88982 8.32863 5.03055 8.46936L11.9999 15.4397L18.9693 8.46936C19.039 8.39968 19.1217 8.34441 19.2128 8.30669C19.3038 8.26898 19.4014 8.24957 19.4999 8.24957C19.5985 8.24957 19.6961 8.26898 19.7871 8.30669C19.8781 8.34441 19.9609 8.39968 20.0306 8.46936C20.1002 8.53905 20.1555 8.62177 20.1932 8.71282C20.2309 8.80386 20.2503 8.90144 20.2503 8.99999C20.2503 9.09854 20.2309 9.19612 20.1932 9.28716C20.1555 9.37821 20.1002 9.46093 20.0306 9.53062Z" fill="#111111"/>
</svg>
