<svg width="24" height="24" viewBox="0 0 24 24" fill="none" xmlns="http://www.w3.org/2000/svg">
<path d="M15.5307 18.9694C15.6004 19.039 15.6557 19.1218 15.6934 19.2128C15.7311 19.3039 15.7505 19.4014 15.7505 19.5C15.7505 19.5985 15.7311 19.6961 15.6934 19.7872C15.6557 19.8782 15.6004 19.9609 15.5307 20.0306C15.461 20.1003 15.3783 20.1556 15.2873 20.1933C15.1962 20.231 15.0986 20.2504 15.0001 20.2504C14.9016 20.2504 14.804 20.231 14.7129 20.1933C14.6219 20.1556 14.5392 20.1003 14.4695 20.0306L6.96948 12.5306C6.89974 12.461 6.84443 12.3782 6.80668 12.2872C6.76894 12.1961 6.74951 12.0986 6.74951 12C6.74951 11.9014 6.76894 11.8038 6.80668 11.7128C6.84443 11.6217 6.89974 11.539 6.96948 11.4694L14.4695 3.96936C14.6102 3.82863 14.8011 3.74957 15.0001 3.74957C15.1991 3.74957 15.39 3.82863 15.5307 3.96936C15.6715 4.1101 15.7505 4.30097 15.7505 4.49999C15.7505 4.69901 15.6715 4.88988 15.5307 5.03061L8.56041 12L15.5307 18.9694Z" fill="#111111"/>
</svg>
