<svg width="24" height="24" viewBox="0 0 24 24" fill="none" xmlns="http://www.w3.org/2000/svg">
<path d="M21.75 12.8119C21.5907 14.6643 20.9056 16.4328 19.7753 17.9091C18.645 19.3854 17.1166 20.5083 15.3699 21.1455C13.6232 21.7827 11.7308 21.9077 9.91544 21.506C8.10005 21.1042 6.43717 20.1923 5.12243 18.8776C3.8077 17.5628 2.89581 15.9 2.49404 14.0846C2.09227 12.2692 2.21735 10.3768 2.85455 8.63008C3.49175 6.88336 4.61456 5.35496 6.0909 4.22469C7.56723 3.09443 9.33567 2.40933 11.1881 2.24998C11.2866 2.24186 11.3858 2.25321 11.4799 2.2834C11.574 2.31358 11.6612 2.362 11.7366 2.4259C11.812 2.4898 11.8741 2.56792 11.9192 2.65581C11.9644 2.74369 11.9919 2.83962 12 2.93811C12.0081 3.0366 11.9968 3.13573 11.9666 3.22983C11.9364 3.32394 11.888 3.41117 11.8241 3.48656C11.7602 3.56195 11.6821 3.62402 11.5942 3.66922C11.5063 3.71441 11.4104 3.74186 11.3119 3.74998C9.74401 3.8847 8.24721 4.46442 6.99762 5.42095C5.74803 6.37748 4.79764 7.67101 4.25826 9.14935C3.71888 10.6277 3.61297 12.2293 3.95297 13.7658C4.29298 15.3023 5.06476 16.7097 6.17751 17.8225C7.29026 18.9352 8.69768 19.707 10.2342 20.047C11.7707 20.387 13.3723 20.2811 14.8506 19.7417C16.329 19.2024 17.6225 18.252 18.5791 17.0024C19.5356 15.7528 20.1153 14.256 20.25 12.6881C20.2664 12.4892 20.3612 12.3049 20.5134 12.1759C20.6657 12.0469 20.863 11.9836 21.0619 12C21.2608 12.0164 21.4451 12.1111 21.5741 12.2634C21.7031 12.4157 21.7664 12.6129 21.75 12.8119ZM11.25 6.74998V12C11.25 12.1989 11.329 12.3897 11.4697 12.5303C11.6103 12.671 11.8011 12.75 12 12.75H17.25C17.4489 12.75 17.6397 12.671 17.7803 12.5303C17.921 12.3897 18 12.1989 18 12C18 11.8011 17.921 11.6103 17.7803 11.4697C17.6397 11.329 17.4489 11.25 17.25 11.25H12.75V6.74998C12.75 6.55107 12.671 6.36031 12.5303 6.21965C12.3897 6.079 12.1989 5.99998 12 5.99998C11.8011 5.99998 11.6103 6.079 11.4697 6.21965C11.329 6.36031 11.25 6.55107 11.25 6.74998ZM15 4.49998C15.2225 4.49998 15.44 4.434 15.625 4.31039C15.81 4.18677 15.9542 4.01107 16.0394 3.8055C16.1245 3.59994 16.1468 3.37374 16.1034 3.15551C16.06 2.93728 15.9528 2.73682 15.7955 2.57949C15.6382 2.42216 15.4377 2.31501 15.2195 2.2716C15.0013 2.22819 14.7751 2.25047 14.5695 2.33562C14.3639 2.42077 14.1882 2.56496 14.0646 2.74997C13.941 2.93497 13.875 3.15248 13.875 3.37498C13.875 3.67335 13.9935 3.9595 14.2045 4.17048C14.4155 4.38146 14.7016 4.49998 15 4.49998ZM18.375 6.74998C18.5975 6.74998 18.815 6.684 19 6.56039C19.185 6.43677 19.3292 6.26107 19.4144 6.0555C19.4995 5.84994 19.5218 5.62374 19.4784 5.40551C19.435 5.18728 19.3278 4.98682 19.1705 4.82949C19.0132 4.67216 18.8127 4.56501 18.5945 4.5216C18.3763 4.47819 18.1501 4.50047 17.9445 4.58562C17.7389 4.67077 17.5632 4.81496 17.4396 4.99997C17.316 5.18497 17.25 5.40248 17.25 5.62498C17.25 5.92335 17.3685 6.2095 17.5795 6.42048C17.7905 6.63146 18.0766 6.74998 18.375 6.74998ZM20.625 10.125C20.8475 10.125 21.065 10.059 21.25 9.93539C21.435 9.81177 21.5792 9.63607 21.6644 9.4305C21.7495 9.22494 21.7718 8.99874 21.7284 8.78051C21.685 8.56228 21.5778 8.36182 21.4205 8.20449C21.2632 8.04716 21.0627 7.94001 20.8445 7.8966C20.6263 7.85319 20.4001 7.87547 20.1945 7.96062C19.9889 8.04577 19.8132 8.18996 19.6896 8.37497C19.566 8.55997 19.5 8.77748 19.5 8.99998C19.5 9.29835 19.6185 9.5845 19.8295 9.79548C20.0405 10.0065 20.3266 10.125 20.625 10.125Z" fill="#111111"/>
</svg>
