<svg width="24" height="24" viewBox="0 0 24 24" fill="none" xmlns="http://www.w3.org/2000/svg">
<path d="M22.5 9.95344V6.75C22.5 6.35218 22.342 5.97064 22.0607 5.68934C21.7794 5.40804 21.3978 5.25 21 5.25H3C2.60218 5.25 2.22064 5.40804 1.93934 5.68934C1.65804 5.97064 1.5 6.35218 1.5 6.75V9.95344C1.27233 10.0849 1.08321 10.2738 0.95158 10.5014C0.819949 10.729 0.750434 10.9871 0.75 11.25V15.75C0.75 16.1478 0.908035 16.5294 1.18934 16.8107C1.47064 17.092 1.85218 17.25 2.25 17.25H3V18.75C3 18.9489 3.07902 19.1397 3.21967 19.2803C3.36032 19.421 3.55109 19.5 3.75 19.5C3.94891 19.5 4.13968 19.421 4.28033 19.2803C4.42098 19.1397 4.5 18.9489 4.5 18.75V17.25H19.5V18.75C19.5 18.9489 19.579 19.1397 19.7197 19.2803C19.8603 19.421 20.0511 19.5 20.25 19.5C20.4489 19.5 20.6397 19.421 20.7803 19.2803C20.921 19.1397 21 18.9489 21 18.75V17.25H21.75C22.1478 17.25 22.5294 17.092 22.8107 16.8107C23.092 16.5294 23.25 16.1478 23.25 15.75V11.25C23.2496 10.9871 23.18 10.729 23.0484 10.5014C22.9168 10.2738 22.7277 10.0849 22.5 9.95344ZM21 9.75H20.25C19.8522 9.75 19.4706 9.90804 19.1893 10.1893C18.908 10.4706 18.75 10.8522 18.75 11.25V12.75H12.75V6.75H21V9.75ZM11.25 6.75V12.75H5.25V11.25C5.25 10.8522 5.09196 10.4706 4.81066 10.1893C4.52936 9.90804 4.14782 9.75 3.75 9.75H3V6.75H11.25ZM21.75 15.75H2.25V11.25H3.75V13.5C3.75 13.6989 3.82902 13.8897 3.96967 14.0303C4.11032 14.171 4.30109 14.25 4.5 14.25H19.5C19.6989 14.25 19.8897 14.171 20.0303 14.0303C20.171 13.8897 20.25 13.6989 20.25 13.5V11.25H21.75V15.75Z" fill="#111111"/>
</svg>
