<svg width="24" height="24" viewBox="0 0 24 24" fill="none" xmlns="http://www.w3.org/2000/svg">
<path d="M21.4163 8.37562L12.4163 2.37562C12.293 2.29339 12.1482 2.24951 12 2.24951C11.8518 2.24951 11.707 2.29339 11.5837 2.37562L2.58375 8.37562C2.48101 8.44417 2.39679 8.53703 2.33857 8.64595C2.28034 8.75488 2.24992 8.87649 2.25 9V18.75C2.25 19.1478 2.40804 19.5294 2.68934 19.8107C2.97064 20.092 3.35218 20.25 3.75 20.25H20.25C20.6478 20.25 21.0294 20.092 21.3107 19.8107C21.592 19.5294 21.75 19.1478 21.75 18.75V9C21.7501 8.87649 21.7197 8.75488 21.6614 8.64595C21.6032 8.53703 21.519 8.44417 21.4163 8.37562ZM9.0675 14.25L3.75 18V10.4559L9.0675 14.25ZM10.6022 15H13.3978L18.7069 18.75H5.29312L10.6022 15ZM14.9325 14.25L20.25 10.4559V18L14.9325 14.25ZM12 3.90094L19.6791 9.02062L13.3978 13.5H10.6041L4.32281 9.02062L12 3.90094Z" fill="#111111"/>
</svg>
