<svg width="24" height="24" viewBox="0 0 24 24" fill="none" xmlns="http://www.w3.org/2000/svg">
<path d="M10.42 5.06V6.54H4.36004V11.24H9.28004V12.72H4.36004V19H2.54004V5.06H10.42Z" fill="#111111"/>
<path d="M18.7982 11.82C19.3048 11.9 19.7648 12.1067 20.1782 12.44C20.6048 12.7733 20.9382 13.1867 21.1782 13.68C21.4315 14.1733 21.5582 14.7 21.5582 15.26C21.5582 15.9667 21.3782 16.6067 21.0182 17.18C20.6582 17.74 20.1315 18.1867 19.4382 18.52C18.7582 18.84 17.9515 19 17.0182 19H11.8182V5.06H16.8182C17.7648 5.06 18.5715 5.22 19.2382 5.54C19.9048 5.84666 20.4048 6.26666 20.7382 6.8C21.0715 7.33333 21.2382 7.93333 21.2382 8.6C21.2382 9.42666 21.0115 10.1133 20.5582 10.66C20.1182 11.1933 19.5315 11.58 18.7982 11.82ZM13.6382 11.08H16.6982C17.5515 11.08 18.2115 10.88 18.6782 10.48C19.1448 10.08 19.3782 9.52666 19.3782 8.82C19.3782 8.11333 19.1448 7.56 18.6782 7.16C18.2115 6.76 17.5382 6.56 16.6582 6.56H13.6382V11.08ZM16.8582 17.5C17.7648 17.5 18.4715 17.2867 18.9782 16.86C19.4848 16.4333 19.7382 15.84 19.7382 15.08C19.7382 14.3067 19.4715 13.7 18.9382 13.26C18.4048 12.8067 17.6915 12.58 16.7982 12.58H13.6382V17.5H16.8582Z" fill="#111111"/>
</svg>
