<svg width="24" height="24" viewBox="0 0 24 24" fill="none" xmlns="http://www.w3.org/2000/svg">
<g clip-path="url(#clip0_126_450)">
<path d="M23.5631 10.5L17.2387 4.13248C15.5497 2.44679 13.2608 1.50006 10.8745 1.50006C8.4882 1.50006 6.19936 2.44679 4.51029 4.13248L4.50185 4.14092L3.21092 5.47498C3.07719 5.61869 3.00514 5.80911 3.01023 6.00535C3.01532 6.20159 3.09715 6.38801 3.23815 6.5246C3.37915 6.66118 3.56809 6.73704 3.76439 6.73588C3.96069 6.73473 4.14872 6.65665 4.2881 6.51842L5.57529 5.18904C6.09315 4.67128 6.68413 4.23224 7.32935 3.88592L11.6887 8.24998L2.68873 17.25C2.5494 17.3893 2.43888 17.5546 2.36348 17.7367C2.28808 17.9187 2.24927 18.1138 2.24927 18.3108C2.24927 18.5078 2.28808 18.7029 2.36348 18.8849C2.43888 19.0669 2.5494 19.2323 2.68873 19.3715L4.62842 21.3112C4.76771 21.4506 4.93308 21.5611 5.11509 21.6365C5.2971 21.7119 5.49219 21.7507 5.6892 21.7507C5.88621 21.7507 6.08129 21.7119 6.2633 21.6365C6.44531 21.5611 6.61069 21.4506 6.74998 21.3112L15.75 12.3112L17.0944 13.6556L18.75 15.3094C18.8893 15.4487 19.0546 15.5592 19.2367 15.6346C19.4187 15.71 19.6137 15.7488 19.8108 15.7488C20.0078 15.7488 20.2029 15.71 20.3849 15.6346C20.5669 15.5592 20.7322 15.4487 20.8715 15.3094L23.5612 12.6197C23.8423 12.3387 24.0003 11.9576 24.0007 11.5602C24.001 11.1628 23.8437 10.7815 23.5631 10.5ZM5.68873 20.25L3.74998 18.3103L10.125 11.9353L12.0637 13.875L5.68873 20.25ZM15.2194 10.7175L13.125 12.8128L11.1853 10.875L13.2806 8.77967C13.3503 8.71001 13.4057 8.6273 13.4434 8.53625C13.4811 8.4452 13.5006 8.3476 13.5006 8.24904C13.5006 8.15048 13.4811 8.05289 13.4434 7.96184C13.4057 7.87079 13.3503 7.78807 13.2806 7.71842L8.84248 3.28123C10.1247 2.9201 11.48 2.90701 12.769 3.2433C14.058 3.5796 15.2342 4.25314 16.1765 5.19467L20.3222 9.36748L17.625 12.0619L16.2806 10.7175C16.2109 10.6477 16.1282 10.5924 16.0372 10.5547C15.9461 10.5169 15.8485 10.4975 15.75 10.4975C15.6514 10.4975 15.5538 10.5169 15.4628 10.5547C15.3717 10.5924 15.289 10.6477 15.2194 10.7175ZM19.8131 14.2481L18.6881 13.1231L21.375 10.4297L22.5 11.5547L19.8131 14.2481Z" fill="#111111"/>
</g>
<defs>
<clipPath id="clip0_126_450">
<rect width="24" height="24" fill="white"/>
</clipPath>
</defs>
</svg>
