<svg width="24" height="24" viewBox="0 0 24 24" fill="none" xmlns="http://www.w3.org/2000/svg">
<path d="M5.36004 5.06002V19H3.54004V5.06002H5.36004Z" fill="#111111"/>
<path d="M18.2219 9.10002C17.8352 8.28669 17.2752 7.66002 16.5419 7.22002C15.8086 6.76669 14.9552 6.54002 13.9819 6.54002C13.0086 6.54002 12.1286 6.76669 11.3419 7.22002C10.5686 7.66002 9.95525 8.30002 9.50191 9.14002C9.06191 9.96669 8.84191 10.9267 8.84191 12.02C8.84191 13.1134 9.06191 14.0734 9.50191 14.9C9.95525 15.7267 10.5686 16.3667 11.3419 16.82C12.1286 17.26 13.0086 17.48 13.9819 17.48C15.3419 17.48 16.4619 17.0734 17.3419 16.26C18.2219 15.4467 18.7352 14.3467 18.8819 12.96H13.3219V11.48H20.8219V12.88C20.7152 14.0267 20.3552 15.08 19.7419 16.04C19.1286 16.9867 18.3219 17.74 17.3219 18.3C16.3219 18.8467 15.2086 19.12 13.9819 19.12C12.6886 19.12 11.5086 18.82 10.4419 18.22C9.37525 17.6067 8.52858 16.76 7.90191 15.68C7.28858 14.6 6.98191 13.38 6.98191 12.02C6.98191 10.66 7.28858 9.44002 7.90191 8.36003C8.52858 7.26669 9.37525 6.42002 10.4419 5.82002C11.5086 5.20669 12.6886 4.90002 13.9819 4.90002C15.4619 4.90002 16.7686 5.26669 17.9019 6.00002C19.0486 6.73336 19.8819 7.76669 20.4019 9.10002H18.2219Z" fill="#111111"/>
</svg>
