<svg width="24" height="24" viewBox="0 0 24 24" fill="none" xmlns="http://www.w3.org/2000/svg">
<path d="M20.9484 3.75655C20.9377 3.57307 20.8599 3.39991 20.73 3.26994C20.6 3.13998 20.4268 3.06226 20.2434 3.05155C13.1062 2.63249 7.3893 4.78124 4.9518 8.81249C4.1069 10.1915 3.69055 11.7903 3.75555 13.4062C3.80899 14.8987 4.24399 16.4062 5.04837 17.8922L3.2193 19.7203C3.07857 19.861 2.99951 20.0519 2.99951 20.2509C2.99951 20.4499 3.07857 20.6408 3.2193 20.7815C3.36003 20.9223 3.55091 21.0013 3.74993 21.0013C3.94895 21.0013 4.13982 20.9223 4.28055 20.7815L6.10868 18.9525C7.59368 19.7559 9.10212 20.1909 10.5937 20.2444C10.6981 20.2481 10.8021 20.25 10.9059 20.25C12.4169 20.254 13.8993 19.8379 15.1874 19.0481C19.2187 16.6106 21.3684 10.8947 20.9484 3.75655ZM14.414 17.7656C12.2812 19.0575 9.75649 19.0781 7.22243 17.8378L15.5315 9.52967C15.6012 9.45999 15.6565 9.37727 15.6942 9.28622C15.7319 9.19518 15.7513 9.0976 15.7513 8.99905C15.7513 8.9005 15.7319 8.80292 15.6942 8.71188C15.6565 8.62083 15.6012 8.53811 15.5315 8.46842C15.4618 8.39874 15.3791 8.34347 15.288 8.30575C15.197 8.26804 15.0994 8.24863 15.0009 8.24863C14.9023 8.24863 14.8047 8.26804 14.7137 8.30575C14.6226 8.34347 14.5399 8.39874 14.4702 8.46842L6.16212 16.7812C4.92555 14.25 4.94337 11.7187 6.2343 9.58967C8.30524 6.17061 13.2281 4.29842 19.4821 4.52155C19.7062 10.7709 17.8331 15.6947 14.414 17.7656Z" fill="#111111"/>
</svg>
