<svg width="24" height="24" viewBox="0 0 24 24" fill="none" xmlns="http://www.w3.org/2000/svg">
<path d="M21.9646 10.7672L17.7459 14.4075L19.0312 19.8515C19.1021 20.1471 19.0838 20.457 18.9787 20.7421C18.8736 21.0273 18.6863 21.2749 18.4405 21.4537C18.1947 21.6324 17.9015 21.7344 17.5978 21.7466C17.2941 21.7587 16.9936 21.6807 16.7343 21.5222L11.9999 18.6084L7.26275 21.5222C7.00347 21.6797 6.70335 21.7571 6.4002 21.7444C6.09704 21.7318 5.8044 21.6298 5.55913 21.4511C5.31386 21.2725 5.12692 21.0253 5.02185 20.7407C4.91679 20.456 4.89829 20.1467 4.96869 19.8515L6.25869 14.4075L2.03994 10.7672C1.81053 10.5689 1.64462 10.3074 1.56293 10.0154C1.48123 9.72342 1.48737 9.41382 1.58058 9.12528C1.67379 8.83675 1.84994 8.58207 2.08703 8.39305C2.32412 8.20404 2.61164 8.08905 2.91369 8.06247L8.44494 7.61622L10.5787 2.45247C10.6942 2.17105 10.8908 1.93033 11.1434 1.76091C11.3961 1.5915 11.6934 1.50104 11.9976 1.50104C12.3018 1.50104 12.5991 1.5915 12.8518 1.76091C13.1044 1.93033 13.301 2.17105 13.4165 2.45247L15.5493 7.61622L21.0806 8.06247C21.3832 8.08807 21.6716 8.2024 21.9095 8.39116C22.1475 8.57992 22.3244 8.8347 22.4182 9.12358C22.512 9.41247 22.5185 9.7226 22.4368 10.0151C22.3551 10.3077 22.1889 10.5696 21.959 10.7681L21.9646 10.7672Z" fill="#111111"/>
</svg>
